<svg width="100" height="100" viewBox="0 0 100 100" fill="none" xmlns="http://www.w3.org/2000/svg">
<g clip-path="url(#clip0_3_8656)">
<rect width="100" height="100" rx="20" fill="white"/>
<path d="M0 0H100V100H0V0Z" fill="white"/>
<path d="M63.697 59.0298C70.8447 55.0672 76.3036 52.0404 76.8002 51.7648C78.2814 50.9436 79.8333 48.8479 76.8002 47.1728C75.8253 46.6333 70.5132 43.6994 63.6886 39.9281L54.3021 49.5085L63.697 59.0298Z" fill="#FFE300"/>
<path d="M54.3021 49.5085L24.2799 80.1495C24.9579 80.2367 25.7733 80.0548 26.7113 79.5348C28.6531 78.4583 49.5067 66.8972 63.697 59.0298L54.3021 49.5085Z" fill="#FF4E54"/>
<path d="M54.3021 49.5085L63.6886 39.9281C63.6886 39.9281 28.7999 20.6483 26.7112 19.4941C25.9084 19.0504 25.0331 18.8955 24.2584 19.0703L54.3021 49.5085Z" fill="#00F085"/>
<path d="M54.3021 49.5085L24.2584 19.0703C23.0174 19.3506 22 20.439 22 22.6256V76.4976C22 78.5568 22.8005 80.0051 24.2799 80.1495L54.3021 49.5085Z" fill="#00E0FF"/>
</g>
<defs>
<clipPath id="clip0_3_8656">
<rect width="100" height="100" rx="20" fill="white"/>
</clipPath>
</defs>
</svg>
