<svg width="100" height="100" viewBox="0 0 100 100" fill="none" xmlns="http://www.w3.org/2000/svg">
<g clip-path="url(#clip0_3_8698)">
<rect width="100" height="100" rx="20" fill="white"/>
<path fill-rule="evenodd" clip-rule="evenodd" d="M100 0H0V100H100V0ZM74.7171 55.2766C75.697 57.2209 76.248 59.4091 76.248 61.7269C76.248 69.7452 69.6546 76.248 61.5209 76.248C59.0006 76.248 56.6338 75.6215 54.5581 74.5228C53.0491 74.7974 51.4962 74.9425 49.9058 74.9425C35.88 74.9425 24.509 63.733 24.509 49.9002C24.509 48.1781 24.6875 46.4929 25.0225 44.8695C23.7389 42.7091 23 40.2031 23 37.5241C23 29.4998 29.5934 23 37.7302 23C40.6074 23 43.2936 23.8179 45.5634 25.2283C46.9785 24.9876 48.428 24.861 49.9058 24.861C63.9347 24.861 75.3025 36.0736 75.3025 49.9002C75.3025 51.7458 75.1021 53.5421 74.7171 55.2766ZM62.9329 61.8689C64.11 60.2239 64.7111 58.3444 64.7111 56.2827C64.7111 54.5575 64.3636 53.076 63.678 51.8693C62.9924 50.6718 62.0312 49.6718 60.8165 48.891C59.6205 48.1225 58.1616 47.4682 56.4678 46.9374C54.7991 46.4096 52.9113 45.9189 50.8544 45.4868C49.2295 45.1165 48.0461 44.8294 47.3417 44.635C46.6529 44.4498 45.9641 44.1844 45.2973 43.8542C44.6524 43.5332 44.142 43.1567 43.7851 42.7184C43.4407 42.311 43.2748 41.8326 43.2748 41.2648C43.2748 40.3327 43.7914 39.5457 44.8496 38.8636C45.9485 38.1507 47.4325 37.7927 49.2483 37.7927C51.2113 37.7927 52.6358 38.1136 53.4905 38.7556C54.3702 39.4161 55.1373 40.3512 55.7697 41.5363C56.3176 42.4622 56.8122 43.1104 57.2881 43.527C57.7953 43.9714 58.5341 44.1998 59.4734 44.1998C60.5065 44.1998 61.3863 43.8387 62.0813 43.1227C62.7732 42.4159 63.1238 41.6012 63.1238 40.7061C63.1238 39.7772 62.8546 38.8173 62.3286 37.8513C61.8089 36.8945 60.9761 35.9779 59.8585 35.1137C58.7502 34.2588 57.3413 33.5675 55.6664 33.0552C54.0008 32.5429 52.0065 32.2836 49.7398 32.2836C46.9002 32.2836 44.3956 32.6725 42.2886 33.441C40.1503 34.2156 38.491 35.3576 37.3577 36.8174C36.2118 38.2865 35.6326 39.9932 35.6326 41.882C35.6326 43.8665 36.1868 45.5547 37.2763 46.9034C38.3501 48.2275 39.8185 49.2861 41.6406 50.0484C43.4188 50.7983 45.6573 51.4557 48.2966 52.0113C50.2345 52.4125 51.7999 52.7983 52.9551 53.1501C54.0603 53.4958 54.9713 53.9896 55.6664 54.6254C56.3238 55.2364 56.6463 56.0142 56.6463 56.9987C56.6463 58.2518 56.0327 59.2764 54.7647 60.1252C53.4717 60.9955 51.7498 61.4399 49.649 61.4399C48.1244 61.4399 46.8815 61.2177 45.961 60.7918C45.0468 60.3628 44.3299 59.8165 43.829 59.1622C43.3124 58.4925 42.824 57.6345 42.3732 56.616C41.9693 55.687 41.4684 54.9618 40.8829 54.471C40.2724 53.9618 39.5179 53.7056 38.6476 53.7056C37.5831 53.7056 36.6908 54.0297 35.9958 54.6778C35.2945 55.329 34.9376 56.1253 34.9376 57.0388C34.9376 58.511 35.4823 60.0326 36.5625 61.5634C37.6301 63.088 39.0358 64.3164 40.742 65.2237C43.1308 66.4737 46.1896 67.1064 49.8369 67.1064C52.8769 67.1064 55.5443 66.6403 57.7702 65.7268C60.0244 64.8071 61.7588 63.5108 62.9329 61.8689Z" fill="#00AEF3"/>
</g>
<defs>
<clipPath id="clip0_3_8698">
<rect width="100" height="100" rx="20" fill="white"/>
</clipPath>
</defs>
</svg>
