<svg width="100" height="100" viewBox="0 0 100 100" fill="none" xmlns="http://www.w3.org/2000/svg">
<g clip-path="url(#clip0_3_8636)">
<rect width="100" height="100" rx="20" fill="white"/>
<path d="M0 0H100V100H0V0Z" fill="white"/>
<path d="M34.5243 57.5214C34.5243 60.6952 31.9591 63.2604 28.7853 63.2604C25.6114 63.2604 23.0463 60.6952 23.0463 57.5214C23.0463 54.3475 25.6114 51.7824 28.7853 51.7824H34.5243V57.5214ZM37.3938 57.5214C37.3938 54.3475 39.959 51.7824 43.1328 51.7824C46.3067 51.7824 48.8718 54.3475 48.8718 57.5214V71.8689C48.8718 75.0428 46.3067 77.6079 43.1328 77.6079C39.959 77.6079 37.3938 75.0428 37.3938 71.8689V57.5214Z" fill="#E01E5A"/>
<path d="M43.13 34.478C39.9562 34.478 37.391 31.9129 37.391 28.739C37.391 25.5652 39.9562 23 43.13 23C46.3039 23 48.869 25.5652 48.869 28.739V34.478H43.13ZM43.13 37.391C46.3039 37.391 48.869 39.9562 48.869 43.13C48.869 46.3039 46.3039 48.869 43.13 48.869H28.739C25.5652 48.869 23 46.3039 23 43.13C23 39.9562 25.5652 37.391 28.739 37.391H43.13Z" fill="#36C5F0"/>
<path d="M66.1317 43.13C66.1317 39.9562 68.6968 37.391 71.8707 37.391C75.0445 37.391 77.6097 39.9562 77.6097 43.13C77.6097 46.3039 75.0445 48.869 71.8707 48.869H66.1317V43.13ZM63.2622 43.13C63.2622 46.3039 60.697 48.869 57.5232 48.869C54.3493 48.869 51.7841 46.3039 51.7841 43.13V28.739C51.7841 25.5652 54.3493 23 57.5232 23C60.697 23 63.2622 25.5652 63.2622 28.739V43.13Z" fill="#2EB67D"/>
<path d="M57.5232 66.1299C60.697 66.1299 63.2622 68.6951 63.2622 71.8689C63.2622 75.0428 60.697 77.6079 57.5232 77.6079C54.3493 77.6079 51.7841 75.0428 51.7841 71.8689V66.1299H57.5232ZM57.5232 63.2604C54.3493 63.2604 51.7841 60.6952 51.7841 57.5214C51.7841 54.3475 54.3493 51.7824 57.5232 51.7824H71.9142C75.088 51.7824 77.6532 54.3475 77.6532 57.5214C77.6532 60.6952 75.088 63.2604 71.9142 63.2604H57.5232Z" fill="#ECB22E"/>
</g>
<defs>
<clipPath id="clip0_3_8636">
<rect width="100" height="100" rx="20" fill="white"/>
</clipPath>
</defs>
</svg>
